<?xml version="1.0" encoding="UTF-8"?>
<svg xmlns="http://www.w3.org/2000/svg" width="80px" height="80px" viewBox="0 0 40 40" version="1.1">
    <defs>
        <radialGradient id="radial0" cx="0" cy="0" fx="0" fy="0" r="1"
                        gradientTransform="matrix(-29.772591,0,0,-29.772591,29.64629,20.176739)">
            <stop offset="0.37313" style="stop-color:rgb(100%,5.098039%,5.098039%);stop-opacity:0.509804;"/>
            <stop offset="1" style="stop-color:rgb(100%,5.098039%,16.470588%);stop-opacity:1;"/>
        </radialGradient>
        <radialGradient id="radial1" cx="0" cy="0" fx="0" fy="0" r="1"
                        gradientTransform="matrix(21.817049,0,0,21.817049,27.230103,19.407952)">
            <stop offset="0.32971" style="stop-color:rgb(100%,0%,0%);stop-opacity:0.380392;"/>
            <stop offset="1" style="stop-color:rgb(100%,0%,12.156863%);stop-opacity:0.878431;"/>
        </radialGradient>
    </defs>
    <g id="surface1">
        <path style=" stroke:none;fill-rule:evenodd;fill:url(#radial0);"
              d="M 19.480469 6.222656 C 20.453125 6.859375 22.171875 8.347656 24.015625 10.191406 C 25.828125 12 27.292969 13.6875 27.949219 14.671875 C 29.902344 17.53125 29.917969 21.320312 27.992188 24.195312 C 27.359375 25.167969 25.867188 26.890625 24.015625 28.738281 C 22.167969 30.589844 20.445312 32.078125 19.472656 32.710938 C 16.597656 34.640625 12.804688 34.625 9.945312 32.664062 C 8.960938 32.007812 7.277344 30.542969 5.46875 28.738281 C 3.628906 26.898438 2.144531 25.183594 1.507812 24.207031 C -0.371094 21.417969 -0.414062 17.757812 1.378906 14.925781 C 1.925781 14 3.492188 12.167969 5.46875 10.191406 C 7.445312 8.214844 9.277344 6.648438 10.203125 6.101562 C 13.03125 4.308594 16.691406 4.351562 19.480469 6.222656 Z M 19.480469 6.222656 "/>
        <path style=" stroke:none;fill-rule:evenodd;fill:url(#radial1);"
              d="M 32.0625 8.871094 C 32.839844 9.378906 34.214844 10.570312 35.691406 12.046875 C 37.140625 13.492188 38.3125 14.84375 38.835938 15.628906 C 40.402344 17.917969 40.414062 20.949219 38.871094 23.25 C 38.363281 24.027344 37.171875 25.40625 35.691406 26.882812 C 34.210938 28.363281 32.835938 29.554688 32.058594 30.0625 C 29.757812 31.605469 26.71875 31.59375 24.433594 30.023438 C 23.648438 29.5 22.300781 28.328125 20.855469 26.882812 C 19.382812 25.410156 18.195312 24.039062 17.683594 23.257812 C 16.179688 21.027344 16.148438 18.097656 17.582031 15.835938 C 18.019531 15.09375 19.273438 13.628906 20.855469 12.046875 C 22.4375 10.464844 23.902344 9.210938 24.640625 8.773438 C 26.90625 7.339844 29.832031 7.375 32.0625 8.871094 Z M 32.0625 8.871094 "/>
        <path style=" stroke:none;fill-rule:evenodd;fill:rgb(100%,5.098039%,16.470588%);fill-opacity:1;"
              d="M 23.464844 9.644531 C 23.644531 9.824219 23.832031 10.003906 24.015625 10.191406 C 25.828125 12 27.292969 13.6875 27.949219 14.671875 C 29.902344 17.53125 29.917969 21.320312 27.992188 24.195312 C 27.359375 25.167969 25.867188 26.890625 24.015625 28.738281 C 23.832031 28.925781 23.644531 29.109375 23.464844 29.285156 C 22.726562 28.679688 21.8125 27.839844 20.855469 26.882812 C 19.382812 25.410156 18.195312 24.039062 17.683594 23.257812 C 16.179688 21.027344 16.148438 18.097656 17.582031 15.835938 C 18.019531 15.09375 19.273438 13.628906 20.855469 12.046875 C 21.8125 11.089844 22.726562 10.253906 23.464844 9.644531 Z M 23.464844 9.644531 "/>
    </g>
</svg>
