<?xml version="1.0" encoding="UTF-8"?>
<svg xmlns="http://www.w3.org/2000/svg" width="13pt" height="13pt" viewBox="0 0 13 13" version="1.1">
    <defs>
        <radialGradient id="radial0" cx="0" cy="0" fx="0" fy="0" r="1"
                        gradientTransform="matrix(-9.676092,0,0,-9.676092,9.635044,6.55744)">
            <stop offset="0.37313" style="stop-color:rgb(100%,5.098039%,5.098039%);stop-opacity:0.509804;"/>
            <stop offset="1" style="stop-color:rgb(100%,5.098039%,16.470588%);stop-opacity:1;"/>
        </radialGradient>
        <radialGradient id="radial1" cx="0" cy="0" fx="0" fy="0" r="1"
                        gradientTransform="matrix(7.090541,0,0,7.090541,8.849783,6.307584)">
            <stop offset="0.32971" style="stop-color:rgb(100%,0%,0%);stop-opacity:0.380392;"/>
            <stop offset="1" style="stop-color:rgb(100%,0%,12.156863%);stop-opacity:0.878431;"/>
        </radialGradient>
    </defs>
    <g id="surface1">
        <path style=" stroke:none;fill-rule:evenodd;fill:url(#radial0);"
              d="M 6.332031 2.023438 C 6.648438 2.230469 7.207031 2.710938 7.804688 3.3125 C 8.394531 3.902344 8.871094 4.449219 9.082031 4.769531 C 9.71875 5.695312 9.722656 6.929688 9.097656 7.863281 C 8.890625 8.179688 8.40625 8.738281 7.804688 9.339844 C 7.203125 9.941406 6.644531 10.425781 6.328125 10.632812 C 5.394531 11.257812 4.160156 11.253906 3.230469 10.617188 C 2.914062 10.402344 2.363281 9.925781 1.777344 9.339844 C 1.179688 8.742188 0.695312 8.183594 0.488281 7.867188 C -0.121094 6.960938 -0.132812 5.769531 0.449219 4.851562 C 0.625 4.550781 1.136719 3.953125 1.777344 3.3125 C 2.421875 2.671875 3.015625 2.160156 3.316406 1.984375 C 4.234375 1.402344 5.425781 1.414062 6.332031 2.023438 Z M 6.332031 2.023438 "/>
        <path style=" stroke:none;fill-rule:evenodd;fill:url(#radial1);"
              d="M 10.421875 2.882812 C 10.671875 3.046875 11.121094 3.433594 11.601562 3.914062 C 12.070312 4.386719 12.453125 4.824219 12.621094 5.078125 C 13.128906 5.824219 13.132812 6.808594 12.632812 7.554688 C 12.46875 7.808594 12.082031 8.257812 11.601562 8.738281 C 11.121094 9.21875 10.671875 9.605469 10.417969 9.769531 C 9.671875 10.273438 8.683594 10.269531 7.941406 9.757812 C 7.683594 9.585938 7.246094 9.207031 6.777344 8.738281 C 6.300781 8.257812 5.914062 7.8125 5.746094 7.558594 C 5.257812 6.832031 5.246094 5.882812 5.714844 5.144531 C 5.855469 4.90625 6.265625 4.429688 6.777344 3.914062 C 7.292969 3.402344 7.769531 2.992188 8.007812 2.851562 C 8.742188 2.386719 9.695312 2.394531 10.421875 2.882812 Z M 10.421875 2.882812 "/>
        <path style=" stroke:none;fill-rule:evenodd;fill:rgb(100%,5.098039%,16.470588%);fill-opacity:1;"
              d="M 7.625 3.132812 C 7.683594 3.191406 7.746094 3.25 7.804688 3.3125 C 8.394531 3.902344 8.871094 4.449219 9.082031 4.769531 C 9.71875 5.695312 9.722656 6.929688 9.097656 7.863281 C 8.890625 8.179688 8.40625 8.738281 7.804688 9.339844 C 7.746094 9.402344 7.683594 9.460938 7.625 9.519531 C 7.386719 9.320312 7.089844 9.046875 6.777344 8.738281 C 6.300781 8.257812 5.914062 7.8125 5.746094 7.558594 C 5.257812 6.832031 5.246094 5.882812 5.714844 5.144531 C 5.855469 4.90625 6.265625 4.429688 6.777344 3.914062 C 7.089844 3.605469 7.386719 3.332031 7.625 3.132812 Z M 7.625 3.132812 "/>
    </g>
</svg>
