<svg fill="none" height="13" viewBox="0 0 359 284" width="13" xmlns="http://www.w3.org/2000/svg" xmlns:xlink="http://www.w3.org/1999/xlink"><radialGradient id="a" cx="0" cy="0" gradientTransform="matrix(-227.016 0 0 -227.016 255.392 147.775)" gradientUnits="userSpaceOnUse" r="1"><stop offset=".373134" stop-color="#ff0d0d" stop-opacity=".51"/><stop offset="1" stop-color="#ff0d2a"/></radialGradient><radialGradient id="b" cx="167.614" cy="141.913" gradientUnits="userSpaceOnUse" r="166.355"><stop offset=".329713" stop-color="#f00" stop-opacity=".38"/><stop offset="1" stop-color="#ff001f" stop-opacity=".88"/></radialGradient><g clip-rule="evenodd" fill-rule="evenodd"><path d="m177.876 41.3864c7.422 4.841 20.529 16.1858 34.597 30.2538 13.796 13.796 24.973 26.6679 29.966 34.1608 14.918 21.79 15.028 50.706.327 72.607-4.824 7.414-16.191 20.551-30.293 34.654-14.103 14.103-27.24 25.47-34.655 30.294-21.916 14.71-50.858 14.591-72.654-.361-7.4991-5.007-20.3456-16.166-34.1126-29.933-14.0396-14.04-25.367-27.122-30.2243-34.552-14.3203-21.272-14.643-49.193-.9701-70.771 4.1762-7.06 16.1232-21.0273 31.1944-36.0985 15.0709-15.0709 29.0386-27.018 36.0996-31.1945 21.562-13.6634 49.459-13.3504 70.725.9404z" fill="url(#a)"/><path d="m273.817 61.5792c5.937 3.8728 16.423 12.9487 27.677 24.2031 11.037 11.0368 19.979 21.3347 23.973 27.3287 11.935 17.432 12.023 40.564.262 58.085-3.859 5.932-12.953 16.441-24.235 27.724-11.282 11.282-21.792 20.375-27.723 24.235-17.533 11.768-40.687 11.673-58.124-.289-5.999-4.006-16.276-12.933-27.29-23.947-11.232-11.231-20.293-21.697-24.179-27.641-11.457-17.017-11.715-39.354-.776-56.616 3.341-5.648 12.898-16.8225 24.955-28.8795 12.057-12.0567 23.231-21.6144 28.879-24.9556 17.25-10.9307 39.568-10.6803 56.581.7523z" fill="url(#b)"/><path d="m208.245 67.4653c1.396 1.3613 2.807 2.7542 4.227 4.1749 13.797 13.796 24.974 26.6679 29.967 34.1608 14.918 21.79 15.028 50.706.327 72.607-4.824 7.414-16.191 20.551-30.294 34.654-1.42 1.42-2.831 2.813-4.227 4.174-5.62-4.641-12.592-11.021-19.888-18.317-11.232-11.231-20.293-21.697-24.179-27.641-11.457-17.017-11.715-39.354-.776-56.616 3.341-5.648 12.898-16.8225 24.955-28.8795 7.295-7.2951 14.267-13.6753 19.888-18.3172z" fill="#ff0d2a"/></g></svg>