<svg fill="none" height="284" viewBox="0 0 1263 284" width="1263" xmlns="http://www.w3.org/2000/svg">
    <radialGradient id="a" cx="0" cy="0" gradientTransform="matrix(-227.016 0 0 -227.016 255.392 147.297)"
                    gradientUnits="userSpaceOnUse" r="1">
        <stop offset=".373134" stop-color="#ff0d0d" stop-opacity=".51"/>
        <stop offset="1" stop-color="#ff0d2a"/>
    </radialGradient>
    <radialGradient id="b" cx="167.614" cy="141.435" gradientUnits="userSpaceOnUse" r="166.355">
        <stop offset=".329713" stop-color="#f00" stop-opacity=".38"/>
        <stop offset="1" stop-color="#ff001f" stop-opacity=".88"/>
    </radialGradient>
    <g fill="#fff">
        <path d="m462.041 198.038h16v-20h-13.8c-12.6 0-18.2-4.6-18.2-14.6v-47.8h32v-19.6h-32v-42h-21v42h-19v19.6h19v47.8c0 22.4 13.2 34.6 37 34.6z"/>
        <path d="m542.896 200.638c14 0 25.8-5.2 34.4-13.8v11.2h21v-102h-21v11.2c-8.6-8.5999-20.4-13.7999-34.4-13.7999-29.8 0-52.8 23.1999-52.8 53.5999s23 53.6 52.8 53.6zm1.8-20.4c-18.8 0-32.6-13.8-32.6-33.2s13.8-33.2 32.6-33.2c19.2 0 32.8 14 32.8 33.2s-13.6 33.2-32.8 33.2z"/>
        <path d="m618.268 198.038h21v-53c0-17.6 13-29.4 32-29.4h8.4v-19.6h-8.4c-14.6 0-24.4 4.2-32 13.8v-13.8h-21z"/>
        <path d="m736.858 200.638c14 0 25.8-5.2 34.4-13.8v11.2h21v-102h-21v11.2c-8.6-8.5999-20.4-13.7999-34.4-13.7999-29.8 0-52.8 23.1999-52.8 53.5999s23 53.6 52.8 53.6zm1.8-20.4c-18.8 0-32.6-13.8-32.6-33.2s13.8-33.2 32.6-33.2c19.2 0 32.8 14 32.8 33.2s-13.6 33.2-32.8 33.2z"/>
        <path d="m812.23 198.038h21v-58c0-14.4 12-26.2 27.8-26.2 15 0 25 10.4 25 27v57.2h21v-57.8c0-28-17.2-46.7999-42.6-46.7999-13.8 0-24.2 5.3999-31.2 12.7999v-10.2h-21z"/>
        <path d="m972.613 198.038h16v-20h-13.8c-12.6 0-18.2-4.6-18.2-14.6v-47.8h32v-19.6h-32v-42h-21v42h-19v19.6h19v47.8c0 22.4 13.2 34.6 37 34.6z"/>
        <path d="m1050.84 200.638c30.4 0 54.6-23.6 54.6-53.6s-24.2-53.6-54.6-53.6-54.604 23.6-54.604 53.6 24.204 53.6 54.604 53.6zm0-20.4c-18.8 0-32.6-14-32.6-33.2s13.8-33.2 32.6-33.2 32.6 14 32.6 33.2-13.8 33.2-32.6 33.2z"/>
        <path d="m1172.12 200.638c30.4 0 54.61-23.6 54.61-53.6s-24.21-53.6-54.61-53.6-54.6 23.6-54.6 53.6 24.2 53.6 54.6 53.6zm0-20.4c-18.8 0-32.6-14-32.6-33.2s13.8-33.2 32.6-33.2 32.61 14 32.61 33.2-13.81 33.2-32.61 33.2z"/>
        <path d="m1241.81 198.038h21v-144h-21z"/>
    </g>
    <g clip-rule="evenodd" fill-rule="evenodd">
        <path d="m177.876 40.9088c7.422 4.841 20.529 16.1858 34.597 30.2538 13.796 13.796 24.973 26.6679 29.966 34.1604 14.918 21.79 15.028 50.706.327 72.607-4.824 7.415-16.191 20.552-30.293 34.654-14.103 14.103-27.24 25.47-34.655 30.294-21.916 14.711-50.858 14.591-72.654-.36-7.4991-5.008-20.3456-16.167-34.1126-29.934-14.0396-14.04-25.367-27.122-30.2243-34.552-14.3203-21.271-14.643-49.193-.9701-70.77 4.1762-7.06 16.1232-21.0279 31.1944-36.0991 15.0709-15.0709 29.0386-27.018 36.0996-31.1945 21.562-13.6634 49.459-13.3504 70.725.9404z"
              fill="url(#a)"/>
        <path d="m273.817 61.1016c5.937 3.8728 16.423 12.9487 27.677 24.2031 11.037 11.0368 19.979 21.3343 23.973 27.3283 11.935 17.432 12.023 40.565.262 58.086-3.859 5.931-12.953 16.441-24.235 27.723s-21.792 20.376-27.723 24.235c-17.533 11.769-40.687 11.673-58.124-.288-5.999-4.006-16.276-12.934-27.29-23.947-11.232-11.232-20.293-21.698-24.179-27.642-11.457-17.017-11.715-39.354-.776-56.616 3.341-5.648 12.898-16.8221 24.955-28.8791 12.057-12.0567 23.231-21.6144 28.879-24.9556 17.25-10.9307 39.568-10.6803 56.581.7523z"
              fill="url(#b)"/>
        <path d="m208.245 66.9877c1.396 1.3613 2.807 2.7542 4.227 4.1749 13.797 13.796 24.974 26.6679 29.967 34.1604 14.918 21.79 15.028 50.706.327 72.607-4.824 7.415-16.191 20.552-30.294 34.654-1.42 1.421-2.831 2.813-4.227 4.174-5.62-4.64-12.592-11.021-19.888-18.316-11.232-11.232-20.293-21.698-24.179-27.642-11.457-17.017-11.715-39.354-.776-56.616 3.341-5.648 12.898-16.8221 24.955-28.8791 7.295-7.2951 14.267-13.6753 19.888-18.3172z"
              fill="#ff0d2a"/>
    </g>
</svg>